PathFileType	4	(X/Y/Z)	/Users/niels/Desktop/University/Third Semester/Perception and Action/Exam/Gymnastics Motion Tracking/Code for Gym Tracking/Analyzed Data/Webcam_Backflip/id6_2_trajectory_Sports2D/id6_2_trajectory_Sports2D_px_person00.trc
DataRate	CameraRate	NumFrames	NumMarkers	Units	OrigDataRate	OrigDataStartFrame	OrigNumFrames
29.714285714285715	29.714285714285715	14	22	m	29.714285714285715	87	105
Frame#	Time	Hip			RHip			RKnee			RAnkle			RBigToe			RSmallToe			RHeel			LHip			LKnee			LAnkle			LBigToe			LSmallToe			LHeel			Neck			Head			Nose			RShoulder			RElbow			RWrist			LShoulder			LElbow			LWrist		
		X1	Y1	Z1	X2	Y2	Z2	X3	Y3	Z3	X4	Y4	Z4	X5	Y5	Z5	X6	Y6	Z6	X7	Y7	Z7	X8	Y8	Z8	X9	Y9	Z9	X10	Y10	Z10	X11	Y11	Z11	X12	Y12	Z12	X13	Y13	Z13	X14	Y14	Z14	X15	Y15	Z15	X16	Y16	Z16	X17	Y17	Z17	X18	Y18	Z18	X19	Y19	Z19	X20	Y20	Z20	X21	Y21	Z21	X22	Y22	Z22
87	2.9278846153846154	0.9375908933266177	-1.076026214489479	0.0	0.877199905415548	-1.0880985096795859	0.0	1.167853146395683	-1.0637691233559676	0.0	1.1522421662012734	-1.0672006151676179	0.0			0.0			0.0			0.0	1.0029348853728126	-1.0982769428053554	0.0	1.0476649614797948	-1.072838245248947	0.0	1.161098837852478	-1.0638793634176253	0.0			0.0			0.0			0.0	0.9733288943965893	-0.8909321119964102	0.0	1.0326298542984391	-0.7723515402708087	0.0	1.0477132903856479	-0.8477149169914305	0.0	0.9141387000892395	-0.940844761292937	0.0	0.8632516076878191	-1.0820392479426433	0.0	1.0250535694894858	-1.0761328097020215	0.0	1.0020016557798834	-0.9442221746189116	0.0	1.0269628795366896	-1.0643649929971386	0.0	1.0331666793714687	-1.0630914898596862	0.0
88	2.9615384615384612	0.9327635767158265	-1.0771946242660824	0.0	0.876706680913327	-1.0886075744412753	0.0	1.166915619690786	-1.063808537537857	0.0	1.1522421662012734	-1.0672006151676179	0.0			0.0			0.0			0.0	1.0035152953372486	-1.0987280901377434	0.0	1.0554036793497776	-1.0717191256707383	0.0	1.161098837852478	-1.0638793634176253	0.0			0.0			0.0			0.0	0.9698869623610082	-0.8900980168719118	0.0	1.0279750606508145	-0.7712891549542673	0.0	1.0449926398077554	-0.8470179304096659	0.0	0.9216564020218426	-0.9391565349584076	0.0	0.8836419382603146	-1.082247812499796	0.0	1.045038026499385	-1.0767588352740123	0.0	0.9929396369441561	-0.9381645285397506	0.0	1.0265940160371407	-1.0610427090421055	0.0	1.0394184987840542	-1.0597672334403423	0.0
89	2.9951923076923075	0.9276937670910858	-1.0791518036533452	0.0	0.8770618270521839	-1.0894701499345125	0.0	1.1649125783375527	-1.0637930581187367	0.0	1.1522421662012734	-1.0672006151676179	0.0			0.0			0.0			0.0	1.0028302042422155	-1.099096910489995	0.0	1.0670668816902615	-1.069491282405194	0.0	1.161098837852478	-1.0638793634176253	0.0			0.0			0.0			0.0	0.9669018949201313	-0.8889888832592426	0.0	1.0226628153230501	-0.7697339999010168	0.0	1.0419709988028483	-0.8456385426605785	0.0	0.9272392292228444	-0.9365334232749496	0.0	0.9118847957142984	-1.079682825965485	0.0	1.0674826333231313	-1.0771712918258027	0.0	0.9843269458859477	-0.9332611675673299	0.0	1.0274689765843619	-1.0567566567997566	0.0	1.0520806912197196	-1.05675000719357	0.0
90	3.0288461538461537	0.9225835900025026	-1.081952909363816	0.0	0.8790541326927936	-1.0907561922986675	0.0	1.1616376139088103	-1.0636547186792078	0.0	1.1522421662012734	-1.0672006151676179	0.0			0.0			0.0			0.0	0.9994166038550456	-1.0991748614250225	0.0	1.080796773682226	-1.06606302634131	0.0	1.161098837852478	-1.0638793634176253	0.0			0.0			0.0			0.0	0.9644213285133115	-0.8876800998037437	0.0	1.0169137838495734	-0.7678048254865283	0.0	1.03870308224532	-0.8436854866164595	0.0	0.930796324961005	-0.9336791351810473	0.0	0.9502373341125675	-1.0725380970294933	0.0	1.0983776452262628	-1.0740974111074444	0.0	0.9759419463629218	-0.9292462109670669	0.0	1.0292745357400424	-1.0508491676935119	0.0	1.0698490830570695	-1.0536087405354242	0.0
91	3.0625	0.917917046088677	-1.085518991852572	0.0	0.8835083369690551	-1.092383358665608	0.0	1.1573478778805524	-1.0633333548902557	0.0	1.1522421662012734	-1.0672006151676179	0.0			0.0			0.0			0.0	0.9915179339309506	-1.0986738448167204	0.0	1.091901021442769	-1.0618906282511442	0.0	1.161098837852478	-1.0638793634176253	0.0			0.0			0.0			0.0	0.9623714001500426	-0.8861631457374554	0.0	1.0112493363661614	-0.7657592714686922	0.0	1.035296299345162	-0.841322899979728	0.0	0.9330689564171564	-0.9305857995635297	0.0	0.9953353622089238	-1.0579872509045747	0.0	1.1370801828226422	-1.0626808729894188	0.0	0.9670505294612254	-0.9254784077682815	0.0	1.0307212116277298	-1.0431614159847615	0.0	1.0868890656980716	-1.0494308560139576	0.0
92	3.096153846153846	0.914489681135423	-1.0893014134616588	0.0	0.8908610306688488	-1.0938974564940114	0.0	1.1528569039700343	-1.0628570848999614	0.0	1.1522421662012734	-1.0672006151676179	0.0			0.0			0.0			0.0	0.9778410162855873	-1.097237864193436	0.0	1.0958589135113268	-1.0579443898630494	0.0	1.161098837852478	-1.0638793634176253	0.0			0.0			0.0			0.0	0.9605980490551894	-0.8844225031808794	0.0	1.0063592672876505	-0.7640092049388788	0.0	1.031941124598846	-0.8387334263941797	0.0	0.9349076994759123	-0.926620629673375	0.0	1.0389971862064153	-1.0335414623328294	0.0	1.17704633317376	-1.0379888261177521	0.0	0.9568592611773657	-0.9212820503374642	0.0	1.0292885365263593	-1.0349271642007787	0.0	1.094586210134834	-1.043887328117411	0.0
93	3.129807692307692	0.9129857210365602	-1.09232178890168	0.0	0.9006134786305222	-1.0945382386693168	0.0	1.149113093710736	-1.0623578435844252	0.0	1.1522421662012734	-1.0672006151676179	0.0			0.0			0.0			0.0	0.9586305899203853	-1.0946921386551889	0.0	1.0929164551773904	-1.0550274657159198	0.0	1.161098837852478	-1.0638793634176253	0.0			0.0			0.0			0.0	0.9589786896653659	-0.8825017850908389	0.0	1.0028917855900228	-0.7630728778112309	0.0	1.0288536105713413	-0.8361571658496416	0.0	0.9365604851973562	-0.9209955767627841	0.0	1.0732417634641527	-0.9988693524984548	0.0	1.2093307801491247	-0.997348859964388	0.0	0.9454910652658873	-0.9164419999456579	0.0	1.0227261839024953	-1.0287182494539346	0.0	1.0874203742548962	-1.0382323303389904	0.0
94	3.1634615384615383	0.9135631245395102	-1.0939596914711576	0.0	0.9112303844113184	-1.093974424833731	0.0	1.1466196450543924	-1.0619648649400875	0.0	1.1522421662012734	-1.0672006151676179	0.0			0.0			0.0			0.0	0.9366053099440754	-1.091545307133815	0.0	1.087556021553594	-1.0531664722699727	0.0	1.161098837852478	-1.0638793634176253	0.0			0.0			0.0			0.0	0.957490290132705	-0.8805242831758028	0.0	1.001293516117063	-0.7633831616180492	0.0	1.026203229903748	-0.8339172589389974	0.0	0.9375682828156953	-0.9133525954826764	0.0	1.0935399640072772	-0.9564195420603004	0.0	1.2259171253413594	-0.9422495599734938	0.0	0.9345109291176449	-0.9115286819507933	0.0	1.0118146982763296	-1.0267904468406006	0.0	1.0680555075974367	-1.034871868518641	0.0
95	3.1971153846153846	0.9160225424006162	-1.0947134608790734	0.0	0.9205769795285683	-1.0929924560426387	0.0	1.145315132628306	-1.0617217856143297	0.0	1.1522421662012734	-1.0672006151676179	0.0			0.0			0.0			0.0	0.9173767401114937	-1.0891540409787552	0.0	1.0836082685042303	-1.0518353126075026	0.0	1.161098837852478	-1.0638793634176253	0.0			0.0			0.0			0.0	0.9562225335628234	-0.8787099029545973	0.0	1.001715160840454	-0.7650393648086902	0.0	1.024048400661777	-0.8323444180602414	0.0	0.9371421795999443	-0.9042147914409133	0.0	1.0982589554151727	-0.910326548057955	0.0	1.2222642216961717	-0.8781944819285095	0.0	0.9266290291971028	-0.9078956352047222	0.0	1.0010048601663064	-1.0295380897500876	0.0	1.0455258838960722	-1.0362436003257534	0.0
96	3.230769230769231	0.92022841767994	-1.0960679927966546	0.0	0.9264632583325271	-1.0933671093023036	0.0	1.144853399752461	-1.061606172871634	0.0	1.1522421662012734	-1.0672006151676179	0.0			0.0			0.0			0.0	0.9078607711242341	-1.0893386224777881	0.0	1.0820258483055565	-1.0505207657753954	0.0	1.161098837852478	-1.0638793634176253	0.0			0.0			0.0			0.0	0.9554264535621769	-0.8773696060227215	0.0	1.0038713246533826	-0.7676506951083534	0.0	1.022307480718681	-0.8316389591761612	0.0	0.9345865019501165	-0.8950148743499853	0.0	1.0877037389816508	-0.8650057269227885	0.0	1.1984629223621988	-0.8124060854125259	0.0	0.9248844286679627	-0.9072694110588992	0.0	0.9953286018297753	-1.0357365443576247	0.0	1.0280222064041997	-1.0438518273530577	0.0
97	3.2644230769230766	0.9261875849912452	-1.0995902634608365	0.0	0.9273330887921817	-1.0970474760427071	0.0	1.1448641525529129	-1.0615743732501328	0.0	1.1522421662012734	-1.0672006151676179	0.0			0.0			0.0			0.0	0.912436570527289	-1.0936985604021474	0.0	1.0822091777812237	-1.0489605786244351	0.0	1.161098837852478	-1.0638793634176253	0.0			0.0			0.0			0.0	0.9555111207560705	-0.8768194466883276	0.0	1.0069662486869526	-0.770376925359222	0.0	1.0208762168821384	-0.8317691990355536	0.0	0.9296037307730735	-0.8875022994823586	0.0	1.0641220320178941	-0.8243355700014552	0.0	1.158209030164472	-0.751245737215767	0.0	0.9313662701355944	-0.9109847224353205	0.0	0.9970330941204375	-1.0437234986153916	0.0	1.018502657118919	-1.0568631884369937	0.0
98	3.298076923076923	0.9336210377072951	-1.1055423699131535	0.0	0.9231009124433327	-1.1046809751327862	0.0	1.145067046402473	-1.0615857519644254	0.0	1.1522421662012734	-1.0672006151676179	0.0			0.0			0.0			0.0	0.9301451769541312	-1.1023956393731877	0.0	1.0833651166938458	-1.0471043520464998	0.0	1.161098837852478	-1.0638793634176253	0.0			0.0			0.0			0.0	0.9567894896344518	-0.8771935581136906	0.0	1.0099712628701982	-0.7723336732799768	0.0	1.0197480662373715	-0.8324546460860788	0.0	0.9224624643147682	-0.8828180903463589	0.0	1.0313251690498353	-0.7912678017172285	0.0	1.1066628241460634	-0.6990707182294869	0.0	0.9459571333769904	-0.9191961530769439	0.0	1.0052946465696688	-1.052088379033605	0.0	1.0157475624236656	-1.0710963549811534	0.0
99	3.331730769230769	0.9415138801557656	-1.1119701786381562	0.0	0.9153585843006146	-1.1143780924951032	0.0	1.1452945108896082	-1.0616118844810931	0.0	1.1522421662012734	-1.0672006151676179	0.0			0.0			0.0			0.0	0.9551716290191878	-1.1131135297694243	0.0	1.0849036278293696	-1.04501157267932	0.0	1.161098837852478	-1.0638793634176253	0.0			0.0			0.0			0.0	0.9591608310566463	-0.8783069247852496	0.0	1.0121115742158309	-0.7731217641949641	0.0	1.0189444459792187	-0.833252087213419	0.0	0.9139843287305641	-0.8809756078896019	0.0	0.9934900141216867	-0.7678605779259983	0.0	1.0485884643772934	-0.658646375015292	0.0	0.9660781491153606	-0.9306204314882459	0.0	1.0179083077365063	-1.0597588580706419	0.0	1.0168774027545633	-1.0801658866256678	0.0
100	3.3653846153846154	0.9483847329991856	-1.1155523437366253	0.0	0.9064293531892028	-1.12226441462657	0.0	1.1454707433177649	-1.0616370562559048	0.0	1.1522421662012734	-1.0672006151676179	0.0			0.0			0.0			0.0	0.9797258358885945	-1.1216677828915211	0.0	1.0864780756584227	-1.0427702916729868	0.0	1.161098837852478	-1.0638793634176253	0.0			0.0			0.0			0.0	0.9621509578751656	-0.879771935472517	0.0	1.013134692791904	-0.772888223453494	0.0	1.0183989796613007	-0.8337065335278779	0.0	0.9053058685892408	-0.8811737985027502	0.0	0.9540735379668956	-0.755428772696701	0.0	0.9874902276595566	-0.6319292186761519	0.0	0.9878115053995005	-0.9431337711262506	0.0	1.032694488743656	-1.0659245608286267	0.0	1.0190488008754708	-1.078647989556396	0.0
